<svg width="201" height="186" viewBox="0 0 201 186" fill="none" xmlns="http://www.w3.org/2000/svg">
<path d="M118.975 60.2579C123.231 57.8627 125.028 54.659 125.028 51.1333C125.028 50.101 125.182 1.46875 125.182 1.46875H74.5236C74.5236 1.46875 74.2855 50.5194 74.2855 51.1333C74.2855 54.6851 76.9296 57.9109 81.2436 60.3118C78.1924 60.7344 75.1749 61.252 72.1912 61.875C76.9631 64.7776 81.4707 68.1673 85.6405 72.0334C91.5493 77.5039 96.438 83.5619 100.276 90.094C104.114 83.5619 109.005 77.5038 114.908 72.0334C119.087 68.1673 123.598 64.7718 128.37 61.8694C125.318 61.2405 122.171 60.7314 119.025 60.2822L118.975 60.2579Z" fill="black" stroke="black" stroke-width="0.975"/>
<path d="M165.574 170.793C162.44 164.812 162.354 156.992 163.746 151.71C165.172 146.277 178.695 135.994 178.695 135.994C202.518 113.94 207.972 82.5023 190.881 65.7798C173.785 49.0588 140.623 53.3916 116.801 75.4483C109.688 82.0373 104.23 89.4613 100.5 97.0826C96.7724 89.4613 91.3093 82.0374 84.1989 75.4483C60.3808 53.3916 27.2132 49.0589 10.1183 65.7798C-6.9708 82.5009 -1.51353 113.941 22.3034 135.994C23.3788 136.988 35.2505 146.277 36.6777 151.71C38.1019 157.138 38.3001 164.941 34.874 170.995H35.3887C35.3134 171.036 35.2396 171.062 35.1628 171.103C54.8742 180.356 77.0581 185.562 100.518 185.562C123.959 185.532 145.827 180.021 165.556 170.768" fill="black"/>
<path d="M38.6143 169.685C57.5853 161.26 78.5619 156.583 100.877 156.583C122.312 156.583 142.885 161.593 161.239 168.708" fill="black"/>
<path d="M38.6143 169.685C57.5853 161.26 78.5619 156.583 100.877 156.583C122.312 156.583 142.885 161.593 161.239 168.708" stroke="white" stroke-width="3.1741" stroke-linecap="round"/>
<path d="M170.357 134.707C150.599 128.325 126.388 124.565 100.228 124.565C73.8399 124.565 49.438 128.396 29.5838 134.879" fill="black"/>
<path d="M170.357 134.707C150.599 128.325 126.388 124.565 100.228 124.565C73.8399 124.565 49.438 128.396 29.5838 134.879" stroke="white" stroke-width="3.1741" stroke-linecap="round"/>
<path d="M121.052 4.97522L78.5429 41.2414H121.052L78.5429 4.97522H121.052Z" stroke="white" stroke-width="1.9503" stroke-linejoin="bevel"/>
<path d="M157.991 156.838C139.798 150.758 120.441 146.348 100.364 146.348C79.8993 146.348 60.1864 150.881 41.6976 157.174" stroke="white" stroke-width="3.1741" stroke-linecap="round"/>
<path d="M90.4052 136.444L100.379 141.175L110.354 136.444L100.379 131.682L90.4052 136.444Z" fill="white" stroke="black" stroke-width="0.9974"/>
<path d="M49.6583 142.613L60.2934 145.757L69.3238 139.558L58.6887 136.384L49.6583 142.613Z" fill="white" stroke="black" stroke-width="0.9974"/>
<path d="M151.132 142.613L140.466 145.757L131.435 139.558L142.07 136.384L151.132 142.613Z" fill="white" stroke="black" stroke-width="0.9974"/>
<path d="M121.071 4.97522H78.5429V41.2414H121.071V4.97522Z" stroke="white" stroke-width="1.9503" stroke-linejoin="bevel"/>
<path d="M100.159 70.3461C110.061 70.3461 118.089 64.7032 118.089 57.7423C118.089 50.7814 110.061 45.1384 100.159 45.1384C90.2571 45.1384 82.2299 50.7814 82.2299 57.7423C82.2299 64.7032 90.2571 70.3461 100.159 70.3461Z" stroke="white" stroke-width="1.9503"/>
</svg>
