<svg width="132" height="190" viewBox="0 0 132 190" fill="none" xmlns="http://www.w3.org/2000/svg">
<path d="M90.848 161.228C79.0487 138.935 80.2409 99.2224 81.2273 83.8355C99.888 82.6175 113.309 79.2542 113.309 75.2901C113.309 71.399 100.391 68.0842 82.2711 66.812C93.8429 61.1355 101.761 49.6612 101.761 36.4185C101.761 17.5376 85.6879 2.23373 65.8507 2.23373C46.0134 2.23373 29.9399 17.538 29.9399 36.4185C29.9399 49.6609 37.8616 61.1351 49.4302 66.812C31.3134 68.0842 18.3896 71.3989 18.3896 75.2901C18.3896 79.2542 31.8175 82.6175 50.4742 83.8355C51.4636 99.2245 52.6558 138.935 40.8566 161.228C17.7312 165.653 1.50366 176.041 1.50366 188.14H130.194C130.194 176.041 113.99 165.649 90.8636 161.217L90.848 161.228Z" fill="black" stroke="black" stroke-width="2.4843" stroke-linejoin="round"/>
</svg>
