<svg width="156" height="202" viewBox="0 0 156 202" fill="none" xmlns="http://www.w3.org/2000/svg">
<path d="M148.953 179.457H145.903V162.021L131.223 146.375H131.074V54.0775H131.223L150.323 36.6895H150.445V6.94267C150.445 4.34278 148.325 2.237 145.714 2.237H119.29V18.4052L104.46 23.0814L90.7936 18.4052V2.237H58.2244V18.4052L44.5555 23.0814L29.7265 18.4052V2.237H3.30709C0.69527 2.237 -1.4217 4.34268 -1.4217 6.94267V36.6895H-1.36786L17.7998 54.0775V146.375L3.11828 162.021V179.457H0.0654828C-2.66615 179.457 -4.88007 181.566 -4.88007 184.169V195.232C-4.88007 197.829 -2.66625 199.938 0.0654828 199.938H148.947C151.682 199.938 153.894 197.829 153.894 195.232V184.169C153.894 181.593 151.679 179.467 148.945 179.467L148.953 179.457Z" fill="black" stroke="black" stroke-width="2.684" stroke-linecap="square"/>
<path d="M7.95641 179.457H139.979" stroke="white" stroke-width="2.684" stroke-linecap="round"/>
<path d="M8.53844 162.028H139.4" stroke="white" stroke-width="2.684" stroke-linecap="round"/>
<path d="M125.443 146.396H21.3352" stroke="white" stroke-width="2.684" stroke-linecap="round"/>
<path d="M21.9142 54.0981H126.025" stroke="white" stroke-width="2.684" stroke-linecap="round"/>
<path d="M5.04901 36.6988H146.376" stroke="white" stroke-width="2.684" stroke-linecap="round"/>
</svg>
