<svg width="235" height="208" viewBox="0 0 235 208" fill="none" xmlns="http://www.w3.org/2000/svg">
<path d="M234.303 198.94C232.338 197.919 214.639 181.366 198.226 181.366C189.691 181.366 182.999 183.817 177.099 185.981C171.113 188.175 165.463 190.245 157.283 190.245C147.75 190.245 139.836 187.476 132.85 185.034C127.218 183.068 122.354 181.366 117.376 181.366C112.401 181.366 107.537 183.068 101.905 185.034C94.9221 187.476 87.0066 190.245 77.4737 190.245C69.2926 190.245 63.6418 188.175 57.6578 185.981C51.7566 183.817 45.0657 181.366 36.5327 181.366C20.115 181.366 2.41546 197.919 0.452118 198.94C0.452118 198.94 7.59779 194.685 14.2472 194.685C20.8982 194.685 26.6578 199.124 36.5337 199.124C41.5992 199.124 45.7274 200.636 50.9572 202.552C57.5821 204.982 65.8246 208 77.4747 208C90.3281 208 100.738 204.362 108.34 201.706C111.8 200.496 115.721 199.124 117.377 199.124C119.04 199.124 122.957 200.495 126.417 201.706C134.021 204.362 144.429 208 157.284 208C168.932 208 177.177 204.982 183.802 202.552C189.029 200.636 193.158 199.124 198.227 199.124C208.101 199.124 215.585 194.685 220.51 194.685C225.436 194.685 234.386 198.937 234.386 198.937L234.303 198.94Z" fill="#20201E"/>
<path d="M180.089 97.3889C180.089 69.3748 154.974 24.9675 135.752 18.9631C135.084 18.754 134.396 18.5785 133.689 18.4381C137.041 17.2551 139.438 14.1946 139.438 10.5916C139.438 5.96774 135.498 2.22168 130.644 2.22168C125.789 2.22168 121.845 5.96812 121.845 10.5916C121.845 13.8043 123.754 16.5871 126.542 17.9937C122.601 18.2364 118.344 19.2117 113.958 20.8933C111.16 19.6825 108.376 18.8155 105.634 18.3402C108.842 17.0929 111.106 14.0922 111.106 10.5916C111.106 5.96774 107.17 2.22168 102.312 2.22168C97.4546 2.22168 93.5183 5.96812 93.5183 10.5916C93.5183 13.8568 95.488 16.682 98.3547 18.0607C96.866 18.2172 95.4003 18.5111 93.967 18.9629C74.7902 24.9686 50.2342 67.732 50.2342 97.3887C50.2342 121.04 60.302 141.414 71.9231 156.163C73.653 160.535 76.2832 160.664 76.8518 161.205C76.8533 161.205 76.8549 161.202 76.8564 161.202C76.8456 161.275 74.5534 175.456 74.3291 178.659C73.9835 183.595 73.4611 189.427 73.4611 189.427C86.1407 194.735 100.034 197.817 115.127 197.817C130.223 197.817 143.431 194.437 156.106 189.132C155.655 185.186 155.137 181.244 154.1 175.322C153.559 172.225 151.697 161.196 151.697 161.196C152.262 160.661 155.682 156.579 155.682 156.579C168.016 141.755 180.067 121.989 180.067 97.4028L180.089 97.3889Z" fill="white" stroke="#20201E" stroke-width="4.1522"/>
<path d="M155.767 189.117C143.086 183.815 130.117 181.186 115.024 181.186C99.9296 181.186 85.8004 184.111 73.1219 189.413C85.8 194.721 99.6933 197.803 114.788 197.803C129.891 197.803 143.106 194.419 155.786 189.119L155.767 189.117Z" fill="white" stroke="black" stroke-width="3.1886" stroke-linejoin="bevel"/>
<path d="M155.421 156.565C163.407 143.86 173.914 119.9 160.785 79.1241C149.769 44.9124 117.313 11.5302 93.7049 18.9481C72.7657 25.5284 49.972 72.6525 49.972 97.374C49.972 121.025 60.0367 141.399 71.6563 156.148L155.447 156.538L155.421 156.565Z" fill="black" stroke="black" stroke-width="1.6765"/>
<path d="M151.425 161.177L151.422 161.168C141.139 156.959 129.311 153.432 114.004 153.432C98.6851 153.432 86.872 156.962 76.5862 161.177C76.5862 161.177 74.2816 175.428 74.0574 178.639C73.7117 183.575 73.1909 189.407 73.1909 189.407C85.8673 184.105 100 181.18 115.089 181.18C129.894 181.18 143.335 183.999 155.833 189.111C155.383 185.166 154.864 181.224 153.828 175.302C153.262 172.187 151.405 161.137 151.405 161.137L151.425 161.177Z" fill="black" stroke="black" stroke-width="1.6765" stroke-linejoin="bevel"/>
<path d="M151.047 180.283C139.649 176.914 127.48 175.062 114.923 175.062C102.153 175.062 89.1013 177.042 77.3948 180.54" stroke="white" stroke-width="1.6765" stroke-linecap="round" stroke-linejoin="bevel"/>
<path d="M79.8427 159.889C89.3668 156.239 100.287 153.27 114.013 153.27C127.813 153.27 138.772 156.271 148.332 159.944" stroke="white" stroke-width="1.6765" stroke-linecap="round"/>
<path d="M154.54 153.45C142.45 144.247 132.776 141.781 114.873 141.781C99.8777 141.781 84.4049 145.56 76.9921 152.023" stroke="white" stroke-width="1.6765" stroke-linecap="round"/>
<path d="M135.881 81.8163L131.791 85.7394H111.087V67.9508L115.209 64.0276L106.902 56.1216L98.5958 64.0276L102.749 67.9806V85.7394H81.9195L77.7977 81.8163L69.491 89.7224L77.7977 97.6285L81.9825 93.6754H102.749V115.357L98.5958 119.31L106.902 127.216L115.209 119.31L111.087 115.387V93.6754H131.728L135.881 97.6285L144.188 89.7224L135.881 81.8163Z" fill="white" stroke="black" stroke-width="1.6765"/>
<path d="M102.057 18.9426C106.914 18.9426 110.852 15.1949 110.852 10.5718C110.852 5.94876 106.914 2.20102 102.057 2.20102C97.1996 2.20102 93.2619 5.94876 93.2619 10.5718C93.2619 15.1949 97.1996 18.9426 102.057 18.9426Z" fill="black" stroke="black" stroke-width="1.6765"/>
<path d="M77.1682 161.206C87.4512 156.989 99.275 153.293 114.596 153.293C129.912 153.293 141.731 156.986 152.013 161.198C152.577 160.662 153.922 159.291 156.698 155.591C148.047 146.68 135.456 141.784 114.859 141.784C92.883 141.784 80.8869 147.242 72.2371 156.164C73.9991 160.507 76.6422 160.656 77.2085 161.195L77.1682 161.206Z" fill="black" stroke="black" stroke-width="1.6765"/>
</svg>
