<svg width="216" height="194" viewBox="0 0 216 194" fill="none" xmlns="http://www.w3.org/2000/svg">
<path d="M160.75 24.2601C160.75 24.2601 157.259 6.40739 157.259 3.91392C157.259 1.42511 154.645 1.0099 152.026 4.33208C149.408 7.65436 137.632 23.8445 137.632 23.8445L160.727 24.2339L160.75 24.2601Z" fill="#20201E" stroke="#20201E" stroke-width="2.684"/>
<path d="M4.25399 161.209C5.43854 153.157 7.05472 145.484 9.02276 138.184L15.3449 135.783L11.123 130.981C13.5289 123.26 16.3236 115.996 19.3932 109.165L25.3727 107.554L22.4184 102.741C25.631 96.2431 29.0833 90.1834 32.6658 84.5407L38.2414 83.4747L36.2427 79.0922C40.2589 73.1935 44.3855 67.8062 48.4813 62.9165L54.3825 62.3009L52.8062 57.9259C57.5936 52.5726 62.2611 47.9151 66.5796 43.9364L72.4855 43.6206L71.4546 39.595C81.9849 30.5261 89.4254 26.1128 89.4254 26.1128L102.803 29.9865C102.803 29.9865 109.198 26.6641 114.435 23.3448C114.435 23.3448 117.922 12.2739 119.085 6.18348C120.25 0.0960635 123.737 2.86416 124.9 4.52378C126.066 6.18349 138.133 18.917 138.133 18.917C138.133 18.917 145.351 17.9739 150.49 18.917C158.048 20.3018 161.541 25.1448 170.266 33.0338C176.628 38.7848 180.444 43.8297 182.624 49.2238C184.804 54.621 182.191 54.621 183.059 59.6014C183.935 64.5849 207.489 101.947 210.104 106.514C212.726 111.079 219.042 125.049 206.616 133.914C203.129 136.408 200.506 137.651 198.329 138.482C198.329 138.482 194.838 137.651 193.532 135.993C193.299 135.695 193.179 135.513 193.122 135.414C193.079 135.297 193.058 135.297 193.122 135.414C193.256 135.739 193.56 136.952 192.222 138.482C190.042 140.976 187.239 140.789 185.677 140.976C183.352 141.251 179.137 139.312 175.646 134.332C172.154 129.346 169.974 127.687 167.357 124.78C164.742 121.876 150.305 115.445 144.673 106.514C143.365 104.443 140.313 105.271 138.132 106.931C135.952 108.593 123.737 109.008 118.504 100.703C118.504 100.703 116.03 122.54 126.356 137.652C143.365 162.56 172.153 168.785 180.881 192.039H1.9351C1.9351 184.002 2.37906 176.293 3.18565 168.873L9.13126 165.882L4.15358 161.21L4.25399 161.209Z" fill="#20201E" stroke="#20201E" stroke-width="2.684"/>
<path d="M96.4048 35.5203C96.4048 35.5203 20.2192 89.7727 20.2192 187.745" stroke="white" stroke-width="2.684"/>
<path d="M193.127 134.765C193.064 134.676 193.064 134.676 193.127 134.765V134.765Z" stroke="#20201E" stroke-width="2.684"/>
<path d="M112.106 73.1639C110.654 88.661 118.216 99.7304 118.505 100.7C118.505 100.7 100.182 91.7084 98.4369 79.8025" stroke="white" stroke-width="2.684"/>
<path d="M118.493 100.685C118.493 100.685 106.279 106.362 97.265 102.763" stroke="white" stroke-width="2.684"/>
<path d="M193.536 135.364C193.536 135.364 185.392 125.395 183.063 120.829" stroke="#20201E" stroke-width="2.684"/>
<path d="M143.35 43.3964C143.35 43.3964 156.763 43.4607 161.235 50.452C167.342 60.0034 160.364 61.2465 160.364 61.2465C160.364 61.2465 153.384 63.3258 148.586 57.0967C143.478 50.4667 147.713 46.3022 147.713 46.3022L143.371 43.3974L143.35 43.3964Z" stroke="white" stroke-width="2.684"/>
<path d="M208.356 113.772C203.557 112.529 200.504 112.939 198.327 114.191C198.327 114.191 200.504 107.96 196.583 102.563C192.653 97.1657 186.11 96.7518 180.442 86.3727" stroke="white" stroke-width="2.684"/>
<path d="M80.9872 49.2361L72.7119 44.2349" stroke="white" stroke-width="2.684"/>
<path d="M63.9773 67.0847L55.6895 63.3413" stroke="white" stroke-width="2.684"/>
<path d="M48.7137 87.7782L39.117 84.0348" stroke="white" stroke-width="2.684"/>
<path d="M36.4928 111.496L26.4681 108.172" stroke="white" stroke-width="2.684"/>
<path d="M26.9024 139.317L16.4309 136.413" stroke="white" stroke-width="2.684"/>
<path d="M21.2292 167.528L10.3267 166.3" stroke="white" stroke-width="2.684"/>
</svg>
