<svg width="224" height="191" viewBox="0 0 224 191" fill="none" xmlns="http://www.w3.org/2000/svg">
<path d="M220.593 50.5238C223.269 46.1515 221.724 40.5424 217.13 37.9936C212.546 35.4434 206.652 36.9174 203.973 41.2881C201.674 45.0346 202.492 49.6829 205.66 52.5417C192.551 67.6674 168.632 95.2585 162.852 101.949C161.155 101.229 159.398 100.543 157.573 99.9016C158.089 94.7734 161.878 55.6066 163.89 34.7783C168.257 34.8734 172.282 32.1214 173.425 27.9231C174.756 23.0246 171.664 18.0279 166.521 16.7587C161.371 15.4925 156.123 18.4345 154.789 23.3315C153.649 27.5268 155.763 31.7922 159.632 33.7299C150.153 54.2015 131.759 93.9448 131.713 94.1095C131.704 94.149 131.71 94.19 131.701 94.2294C130.029 94.0379 128.312 93.8726 126.566 93.7352C126.216 91.533 118.328 45.4632 114.214 21.4695C118.94 20.4181 122.464 16.3925 122.464 11.5728C122.464 5.95044 117.677 1.39252 111.768 1.39252C105.865 1.39252 101.075 5.95053 101.075 11.5728C101.075 16.3925 104.603 20.418 109.328 21.4695C105.235 45.3542 97.397 91.1118 96.9854 93.6962C95.1541 93.8337 93.3689 94.0033 91.6204 94.1948C91.6081 94.1378 91.6112 94.0895 91.5928 94.0355C91.5498 93.8716 73.1531 54.1248 63.6802 33.6529C67.5456 31.7212 69.6597 27.4543 68.5198 23.256C67.1862 18.3603 61.9348 15.4183 56.7881 16.6862C51.6475 17.954 48.5533 22.9521 49.8867 27.8476C51.0298 32.0471 55.0519 34.7978 59.4184 34.7014C61.4279 55.5081 65.2044 94.5929 65.7359 99.8067C63.9413 100.425 62.2206 101.092 60.5492 101.791C54.542 94.8409 30.8881 67.5523 17.8736 52.5457C21.0477 49.687 21.8681 45.0386 19.5698 41.2921C16.8935 36.9214 10.9969 35.4473 6.40622 37.9976C1.81866 40.5464 0.26997 46.1556 2.9495 50.5278C5.24478 54.2697 9.90326 55.8812 14.079 54.6573C21.9052 74.0572 47.1673 136.497 48.1332 137.357H48.1424C48.1608 137.465 50.6436 152.953 50.9171 158.089C51.1906 163.198 48.8553 175.697 49.0243 175.77V175.782C49.0274 175.782 49.0304 175.776 49.0335 175.776C67.7679 184.126 89.1038 188.82 111.985 188.82C135.079 188.82 176.768 175.379 176.573 175.291C173.847 169.816 174.877 137.351 174.877 137.351C175.841 136.482 201.434 74.5663 209.466 54.6574C213.588 55.8852 218.244 54.2681 220.541 50.5247" fill="black"/>
<path d="M220.593 50.5238C223.269 46.1515 221.724 40.5424 217.13 37.9936C212.546 35.4434 206.652 36.9174 203.973 41.2881C201.674 45.0346 202.492 49.6829 205.66 52.5417C192.551 67.6674 168.632 95.2585 162.852 101.949C161.155 101.229 159.398 100.543 157.573 99.9016C158.089 94.7734 161.878 55.6066 163.89 34.7783C168.257 34.8734 172.282 32.1214 173.425 27.9231C174.756 23.0246 171.664 18.0279 166.521 16.7587C161.371 15.4925 156.123 18.4345 154.789 23.3315C153.649 27.5268 155.763 31.7922 159.632 33.7299C150.153 54.2015 131.759 93.9448 131.713 94.1095C131.704 94.149 131.71 94.19 131.701 94.2294C130.029 94.0379 128.312 93.8726 126.566 93.7352C126.216 91.533 118.328 45.4632 114.214 21.4695C118.94 20.4181 122.464 16.3925 122.464 11.5728C122.464 5.95044 117.677 1.39252 111.768 1.39252C105.865 1.39252 101.075 5.95053 101.075 11.5728C101.075 16.3925 104.603 20.418 109.328 21.4695C105.235 45.3542 97.397 91.1118 96.9854 93.6962C95.1541 93.8337 93.3689 94.0033 91.6204 94.1948C91.6081 94.1378 91.6112 94.0895 91.5928 94.0355C91.5498 93.8716 73.1531 54.1248 63.6802 33.6529C67.5456 31.7212 69.6597 27.4543 68.5198 23.256C67.1862 18.3603 61.9348 15.4183 56.7881 16.6862C51.6475 17.954 48.5533 22.9521 49.8867 27.8476C51.0298 32.0471 55.0519 34.7978 59.4184 34.7014C61.4279 55.5081 65.2044 94.5929 65.7359 99.8067C63.9413 100.425 62.2206 101.092 60.5492 101.791C54.542 94.8409 30.8881 67.5523 17.8736 52.5457C21.0477 49.687 21.8681 45.0386 19.5698 41.2921C16.8935 36.9214 10.9969 35.4473 6.40622 37.9976C1.81866 40.5464 0.26997 46.1556 2.9495 50.5278C5.24478 54.2697 9.90326 55.8812 14.079 54.6573C21.9052 74.0572 47.1673 136.497 48.1332 137.357H48.1424C48.1608 137.465 50.6436 152.953 50.9171 158.089C51.1906 163.198 48.8553 175.697 49.0243 175.77V175.782C49.0274 175.782 49.0304 175.776 49.0335 175.776C67.7679 184.126 89.1038 188.82 111.985 188.82C135.079 188.82 176.768 175.379 176.573 175.291C173.847 169.816 174.877 137.351 174.877 137.351C175.841 136.482 201.434 74.5663 209.466 54.6574C213.588 55.8852 218.244 54.2681 220.541 50.5247" stroke="black" stroke-width="2.684" stroke-linejoin="bevel"/>
<path d="M53.6724 172.05C73.3715 164.323 91.8109 161.007 114.406 161.007C136.105 161.007 153.475 164.426 171.637 171.588" fill="black"/>
<path d="M53.6724 172.05C73.3715 164.323 91.8109 161.007 114.406 161.007C136.105 161.007 153.475 164.426 171.637 171.588" stroke="white" stroke-width="2.9123" stroke-linecap="round"/>
<path d="M167.889 135.843C151.865 129.983 132.234 126.535 111.026 126.535C89.6278 126.535 69.8391 130.044 53.7385 135.999" fill="black"/>
<path d="M167.889 135.843C151.865 129.983 132.234 126.535 111.026 126.535C89.6278 126.535 69.8391 130.044 53.7385 135.999" stroke="white" stroke-width="2.9123" stroke-linecap="round"/>
<path d="M169.809 161.359C152.073 155.781 134.018 151.734 113.688 151.734C92.975 151.734 73.0139 155.898 54.2986 161.677" stroke="white" stroke-width="2.9123" stroke-linecap="round"/>
<path d="M102.915 140.515L111.851 144.768L120.818 140.515L111.851 136.263L102.915 140.515Z" fill="white"/>
<path d="M157.38 146.056L147.846 148.9L139.729 143.33L149.262 140.485L157.38 146.056Z" fill="white"/>
<path d="M66.3527 146.056L75.8865 148.9L84.0045 143.33L74.4706 140.485L66.3527 146.056Z" fill="white"/>
</svg>
