<svg width="239" height="210" viewBox="0 0 239 210" fill="none" xmlns="http://www.w3.org/2000/svg">
<path d="M236.031 198.813C234.066 197.794 216.367 181.241 199.95 181.241C191.417 181.241 184.725 183.693 178.824 185.854C172.839 188.048 167.189 190.12 159.009 190.12C149.476 190.12 141.562 187.351 134.575 184.909C128.944 182.941 124.078 181.24 119.102 181.24C114.127 181.24 109.264 182.941 103.632 184.909C96.6495 187.351 88.734 190.12 79.1995 190.12C71.0199 190.12 65.3676 188.048 59.3836 185.854C53.4824 183.693 46.7902 181.241 38.2556 181.241C21.8411 181.241 4.14154 197.794 2.1781 198.813C2.1781 198.813 9.71072 194.559 15.9732 194.559C22.2356 194.559 28.3823 198.997 38.2565 198.997C43.3248 198.997 47.453 200.511 52.6831 202.428C59.308 204.855 67.5521 207.876 79.2006 207.876C92.0524 207.876 102.464 204.238 110.066 201.581C113.528 200.369 117.447 198.997 119.103 198.997C120.766 198.997 124.683 200.369 128.143 201.581C135.745 204.238 146.155 207.876 159.01 207.876C170.656 207.876 178.902 204.855 185.528 202.428C190.753 200.511 194.884 198.997 199.951 198.997C209.827 198.997 213.9 194.559 222.236 194.559C230.637 194.559 236.112 198.812 236.112 198.812L236.031 198.813Z" fill="white" stroke="#20201E" stroke-width="4.1522" stroke-linecap="round" stroke-linejoin="round"/>
<path d="M137.2 18.8419C136.533 18.6342 135.844 18.4588 135.141 18.3185C138.49 17.134 140.886 14.075 140.886 10.472C140.886 5.84808 136.95 2.10202 132.092 2.10202C127.234 2.10202 123.296 5.84846 123.296 10.472C123.296 13.6847 125.198 16.4674 127.99 17.874C102.747 19.4343 64.4277 51.0825 63.2069 104.667C62.7214 125.958 65.5575 143.386 73.37 156.045L157.831 155.471C170.179 140.644 181.534 121.877 181.534 97.269C181.534 64.5306 156.425 24.8266 137.2 18.8192V18.8419Z" fill="white" stroke="#20201E" stroke-width="4.1522"/>
<path d="M162.498 79.0211C153.212 50.1822 128.698 21.9507 107.082 18.2222C110.295 16.975 112.556 13.9742 112.556 10.4737C112.556 5.84977 108.62 2.10372 103.762 2.10372C98.9057 2.10372 94.9666 5.85016 94.9666 10.4737C94.9666 13.7388 96.9377 16.564 99.8062 17.9428C98.3144 18.0978 96.8502 18.3932 95.4184 18.8435C76.2416 24.8506 51.6825 65.2079 51.6825 97.2724C51.6825 120.923 61.7504 141.298 73.3699 156.047L157.831 155.474C165.823 142.776 175.608 119.777 162.487 79.0154L162.498 79.0211Z" fill="white" stroke="#20201E" stroke-width="4.1522"/>
<path d="M157.558 189.02C146.945 184.386 131.91 181.087 116.82 181.087C101.724 181.087 87.5925 184.012 74.9156 189.317C87.5921 194.619 101.489 197.703 116.581 197.703C131.684 197.703 144.9 194.319 157.58 189.019L157.558 189.02Z" fill="white" stroke="black" stroke-width="3.1886" stroke-linejoin="bevel"/>
<path d="M153.153 161.079L153.145 161.069C142.862 156.862 131.032 153.335 115.727 153.335C100.408 153.335 88.5952 156.865 78.3093 161.079C78.3093 161.079 76.0047 175.328 75.782 178.545C75.4348 183.477 74.914 189.313 74.914 189.313C87.5904 184.007 101.722 181.083 116.819 181.083C131.618 181.083 145.06 183.901 157.556 189.016C157.107 185.068 156.588 181.123 155.553 175.203C154.986 172.059 153.13 161.038 153.13 161.038L153.153 161.079Z" fill="white" stroke="#20201E" stroke-width="4.1522" stroke-linejoin="bevel"/>
<path d="M74.8999 189.32C87.5764 184.014 101.708 181.09 116.805 181.09C131.604 181.09 145.046 183.908 157.542 189.023C157.221 185.72 156.453 183.661 155.969 179.445C143.412 175.259 130.682 173.122 116.61 173.122C102.378 173.122 88.2759 175.582 75.5985 179.859C75.5356 183.572 74.8748 189.322 74.8748 189.322L74.8999 189.32Z" fill="white" stroke="#20201E" stroke-width="4.1522" stroke-linejoin="bevel"/>
<path d="M78.298 161.079C88.5826 156.868 100.406 153.262 115.729 153.169C128.774 153.087 142.865 156.862 153.15 161.073C153.714 160.535 156.103 159.845 157.833 155.467C149.184 146.556 136.326 141.901 115.73 141.901C93.7517 141.901 82.0182 147.117 73.3716 156.04C75.0708 160.412 77.7138 160.532 78.2801 161.071L78.298 161.079Z" fill="white" stroke="#20201E" stroke-width="4.1522"/>
<path d="M115.741 141.913V153.173" stroke="black" stroke-width="3.1886"/>
<path d="M137.609 81.6893L133.487 85.6124H112.783V67.8417L116.905 63.9186L108.599 56.0185L100.292 63.9186L104.445 67.8836V85.6124H83.6471L79.5252 81.6893L71.2185 89.5954L79.5252 97.5014L83.6786 93.5484H104.445V115.26L100.292 119.213L108.599 127.119L116.905 119.213L112.783 115.29V93.5484H133.456L137.609 97.5014L145.916 89.5954L137.609 81.6893Z" fill="white" stroke="black" stroke-width="2.4221"/>
</svg>
