<svg width="155" height="202" viewBox="0 0 155 202" fill="none" xmlns="http://www.w3.org/2000/svg">
<path d="M147.83 199.694C150.564 199.694 152.775 197.589 152.775 194.986V183.922C152.775 181.319 150.564 179.215 147.83 179.215H-1.05512C-3.78826 179.215 -6.00073 181.319 -6.00073 183.922V194.986C-6.00073 197.589 -3.78846 199.694 -1.05512 199.694H147.83Z" fill="white" stroke="#20201E" stroke-width="3.4947"/>
<path d="M144.781 161.781H1.99695V179.219H144.781V161.781Z" fill="white" stroke="#20201E" stroke-width="3.4947"/>
<path d="M144.781 161.781L130.099 146.119H16.6784L1.99695 161.781H144.781Z" fill="white" stroke="#20201E" stroke-width="3.4947" stroke-linejoin="bevel"/>
<path d="M149.255 36.389L130.099 53.8303H16.6784L-2.54016 36.389H149.255Z" fill="white" stroke="#20201E" stroke-width="3.4947" stroke-linejoin="round"/>
<path d="M129.948 53.8303H16.6785V146.128H129.948V53.8303Z" fill="white" stroke="#20201E" stroke-width="3.4947"/>
<path d="M144.589 1.98563H118.17V18.1553L103.344 22.8289L89.6732 18.1553V1.98563H57.1072V18.1553L43.4367 22.8289L28.6093 18.1553V1.98563H2.18991C-0.421911 1.98563 -2.539 4.09129 -2.539 6.68976V36.4397H149.322V6.68976C149.319 4.09034 147.202 1.98505 144.59 1.98505L144.589 1.98563Z" fill="white" stroke="#20201E" stroke-width="3.4947" stroke-linecap="square"/>
</svg>
