<svg width="205" height="189" viewBox="0 0 205 189" fill="none" xmlns="http://www.w3.org/2000/svg">
<path d="M127.268 2.20197H76.6131V52.5882C76.6131 60.0062 88.0127 66.0264 102.067 66.0264C116.131 66.0264 127.169 60.0064 127.169 52.5882C127.169 51.9324 127.263 2.20197 127.263 2.20197H127.268Z" fill="white" stroke="#20201E" stroke-width="3.809"/>
<path d="M127.265 2.20197H76.6098V45.4039H127.265V2.20197Z" fill="white" stroke="#20201E" stroke-width="3.809"/>
<path d="M76.6098 2.20197L127.268 45.4008" stroke="#20201E" stroke-width="3.809"/>
<path d="M127.268 2.20197L76.6098 45.4008" stroke="#20201E" stroke-width="3.809"/>
<path d="M167.354 171.389C147.646 162.133 126.224 157.266 102.76 157.266C79.297 157.266 56.8595 162.456 37.1469 171.711C56.8598 180.967 78.9162 186.297 102.376 186.297C125.849 186.327 147.654 180.667 167.351 171.413L167.354 171.389Z" fill="white" stroke="#20201E" stroke-width="3.809" stroke-linejoin="round"/>
<path d="M177.203 139.645C178.334 138.703 179.455 137.74 180.555 136.723C204.375 114.665 209.832 83.2285 192.741 66.5089C175.645 49.7879 142.483 54.1207 118.664 76.1774C111.547 82.765 106.087 90.1919 102.36 97.8117C98.6359 90.1919 93.1727 82.765 86.0592 76.1774C62.2409 54.1207 29.0702 49.788 11.9817 66.5089C-5.11338 83.2285 0.342294 114.667 24.1652 136.723C25.2683 137.742 26.3945 138.71 27.5329 139.652C48.1001 132.301 74.0976 127.909 102.378 127.909C130.633 127.909 156.623 132.311 177.17 139.648L177.203 139.645Z" fill="white" stroke="#20201E" stroke-width="3.809" stroke-linejoin="bevel"/>
<path d="M102.379 97.8385C106.107 90.2172 111.567 82.7918 118.683 76.2073C124.482 70.8321 130.842 66.5182 137.39 63.2971C126.531 60.3901 114.738 58.7948 102.398 58.7948C90.052 58.7948 78.2463 60.3946 67.3842 63.3061C73.9229 66.5261 80.2804 70.8367 86.0787 76.2077C93.1898 82.7961 98.6331 90.223 102.377 97.8297L102.379 97.8385Z" fill="white" stroke="#20201E" stroke-width="3.809"/>
<path d="M176.919 139.645L176.907 139.629C156.351 132.287 130.368 127.901 102.112 127.901C73.8325 127.901 47.8356 132.294 27.2703 139.645C27.2703 139.645 37.1351 146.999 38.5626 152.431C39.9884 157.859 40.5999 165.644 37.1723 171.696C56.8825 162.442 79.3225 157.252 102.786 157.252C125.8 157.252 147.957 162.45 167.38 171.375C164.246 165.398 164.239 157.71 165.628 152.431C167.044 147.04 176.924 139.673 176.924 139.673L176.919 139.645Z" fill="white" stroke="#20201E" stroke-width="3.809" stroke-linejoin="bevel"/>
<path d="M37.153 171.718C56.8631 162.464 79.3031 157.274 102.766 157.274C125.781 157.274 147.934 162.472 167.36 171.397C166.027 168.843 164.626 162.323 164.85 158.687C145.326 151.381 124.33 147.388 102.455 147.388C80.3289 147.388 59.1097 151.464 39.4001 158.923C39.6518 165.661 38.6449 169.045 37.1661 171.681L37.153 171.718Z" fill="white" stroke="#20201E" stroke-width="3.809" stroke-linejoin="bevel"/>
<path d="M92.7513 137.908L102.505 142.55L112.228 137.908L102.505 133.266L92.7513 137.908Z" fill="black"/>
<path d="M52.8854 143.957L63.2688 147.042L72.1105 140.963L61.727 137.878L52.8854 143.957Z" fill="black"/>
<path d="M152.094 143.957L141.71 147.042L132.869 140.963L143.252 137.878L152.094 143.957Z" fill="black"/>
<path d="M102.379 72.0815C112.283 72.0815 120.312 66.4392 120.312 59.479C120.312 52.5189 112.283 46.8766 102.379 46.8766C92.4757 46.8766 84.4471 52.5189 84.4471 59.479C84.4471 66.4392 92.4757 72.0815 102.379 72.0815Z" fill="white" stroke="#20201E" stroke-width="3.809"/>
</svg>
