<svg width="224" height="193" viewBox="0 0 224 193" fill="none" xmlns="http://www.w3.org/2000/svg">
<path d="M176.032 177.037C156.944 168.543 136.024 164.083 112.929 164.083C89.8343 164.083 67.4472 168.952 47.7313 177.448C66.819 185.935 88.4719 190.714 111.57 190.714C134.697 190.744 156.344 185.533 176.041 177.058L176.032 177.037Z" fill="white" stroke="#20201E" stroke-width="3.4947" stroke-linejoin="bevel"/>
<path d="M174.616 138.914L174.604 138.894C157.446 132.162 137.482 128.066 111.561 128.066C85.6089 128.066 65.5437 132.164 47.8826 138.915C47.8826 138.915 49.8092 154.498 49.889 159.651C49.9842 165.455 48.2789 177.347 48.2789 177.347C67.9934 168.852 89.8438 164.076 112.939 164.076C135.591 164.076 158.613 168.501 176.041 177.03C173.178 171.58 174.625 138.937 174.625 138.937L174.616 138.914Z" fill="white" stroke="#20201E" stroke-width="3.4947" stroke-linejoin="bevel"/>
<path d="M48.3481 177.247C66.9044 168.847 89.8438 164.075 112.939 164.075C135.591 164.075 154.608 167.115 176.042 177.029C175.178 174.738 174.6 167.619 174.413 165.037C155.442 158.329 134.519 154.522 112.984 154.522C91.2109 154.522 69.3049 158.537 49.652 165.382C49.2429 168.048 48.3619 177.211 48.3619 177.211L48.3481 177.247Z" fill="white" stroke="#20201E" stroke-width="3.4947" stroke-linejoin="bevel"/>
<path d="M217.433 40.8488C212.849 38.1885 206.961 39.7261 204.284 44.2871C201.984 48.1952 202.804 53.0427 205.969 56.028C192.872 71.8035 168.966 100.586 163.197 107.568C161.502 106.816 159.746 106.102 157.92 105.435C158.439 100.081 162.224 59.225 164.232 37.4945C168.595 37.5936 172.62 34.7229 173.759 30.3465C175.088 25.235 172.002 20.021 166.857 18.6986C161.721 17.3761 156.474 20.4452 155.141 25.5536C153.999 29.9316 156.114 34.3827 159.98 36.3977C150.508 57.7592 132.131 99.215 132.085 99.3867C132.075 99.428 132.082 99.4707 132.072 99.5134C130.402 99.3165 128.686 99.1412 126.936 98.9978C126.589 96.6991 118.708 48.6421 114.6 23.6127C119.322 22.5144 122.837 18.315 122.837 13.2872C122.837 7.42656 118.057 2.66901 112.156 2.66901C106.255 2.66901 101.472 7.42685 101.472 13.2872C101.472 18.3149 104.997 22.5142 109.716 23.6127C105.626 48.5299 97.7945 96.2612 97.3833 98.9572C95.5565 99.1037 93.7697 99.276 92.0259 99.4804C92.0136 99.4194 92.0167 99.3675 91.9983 99.3126C91.9553 99.1402 73.5742 57.6791 64.1091 36.3203C67.9682 34.3067 70.0805 29.8574 68.9415 25.4763C67.612 20.3679 62.362 17.2986 57.2229 18.6213C52.0837 19.944 48.9949 25.1577 50.3272 30.2644C51.4693 34.6467 55.4881 37.5146 59.8508 37.414C61.8586 59.1201 65.6319 99.8908 66.163 105.33C64.37 105.979 62.6447 106.674 60.9807 107.404C54.9785 100.149 31.3446 71.6844 18.3411 56.0301C21.5125 53.0449 22.3293 48.1973 20.0358 44.2891C17.3617 39.7281 11.47 38.1905 6.88321 40.8509C2.29951 43.5095 0.748943 49.361 3.42312 53.9219C5.72266 57.8269 10.377 59.5063 14.5494 58.2311C22.3691 78.4684 47.6099 143.601 48.575 144.5C65.9735 137.464 85.9802 133.183 111.904 133.183C137.816 133.183 157.817 137.459 175.218 144.494C176.176 143.592 201.75 78.9964 209.772 58.2311C213.947 59.5063 218.598 57.8269 220.895 53.9219C223.473 49.364 221.932 43.5127 217.342 40.8542L217.433 40.8488Z" fill="white" stroke="#20201E" stroke-width="3.4947"/>
<path d="M103.125 146.88L112.111 151.163L121.128 146.88L112.111 142.596L103.125 146.88Z" fill="black"/>
<path d="M66.1208 153.047L75.844 155.923L84.123 150.232L74.3999 147.356L66.1208 153.047Z" fill="black"/>
<path d="M157.132 153.027L147.949 155.923L140.13 150.252L149.313 147.356L157.132 153.027Z" fill="black"/>
</svg>
