<svg width="216" height="194" viewBox="0 0 216 194" fill="none" xmlns="http://www.w3.org/2000/svg">
<path d="M160.908 24.2583C160.908 24.2583 157.417 6.40555 157.417 3.91512C157.417 1.4247 154.804 1.00816 152.185 4.33044C149.567 7.65129 137.79 23.8429 137.79 23.8429L160.886 24.2562L160.908 24.2583Z" fill="white" stroke="#20201E" stroke-width="3.4947"/>
<path d="M4.40502 161.195C5.58806 153.144 7.20734 145.468 9.17538 138.172L15.4961 135.771L11.2773 130.966C13.6801 123.248 16.475 115.98 19.5458 109.148L25.527 107.54L22.5695 102.726C25.7821 96.2295 29.2343 90.1697 32.8157 84.5267L38.3927 83.4607L36.3924 79.0782C40.4101 73.1794 44.5367 67.7922 48.6309 62.9025L54.5337 62.2869L52.9574 57.9119C57.7479 52.5571 62.417 47.8997 66.7339 43.9209L72.6383 43.605L71.6059 39.5795C82.1362 30.5106 89.5767 26.0972 89.5767 26.0972L102.954 29.9736C102.954 29.9736 109.35 26.6512 114.586 23.3304C114.586 23.3304 118.073 12.2595 119.235 6.17062C120.401 0.0817699 123.888 2.84825 125.051 4.50948C126.217 6.17062 138.284 18.8997 138.284 18.8997C138.284 18.8997 145.503 17.961 150.644 18.8997C158.202 20.2874 161.692 25.1291 170.42 33.0165C176.779 38.7706 180.596 43.814 182.776 49.2081C184.956 54.6052 182.341 54.6052 183.211 59.5872C184.088 64.5692 207.641 101.933 210.254 106.5C212.876 111.066 219.195 125.032 206.768 133.9C203.28 136.391 200.659 137.64 198.482 138.466C198.482 138.466 194.99 137.64 193.684 135.979C193.451 135.682 193.331 135.501 193.274 135.4C193.232 135.289 193.209 135.281 193.274 135.4C193.408 135.723 193.712 136.937 192.374 138.466C190.192 140.959 187.391 140.774 185.832 140.959C183.504 141.237 179.288 139.301 175.798 134.316C172.307 129.334 170.127 127.671 167.507 124.766C164.894 121.86 150.457 115.431 144.824 106.499C143.517 104.427 140.464 105.253 138.284 106.916C136.104 108.577 123.888 108.994 118.657 100.687C118.657 100.687 116.182 122.527 126.508 137.639C143.517 162.548 172.308 168.772 181.036 192.026H2.11812C2.11812 183.991 2.56369 176.276 3.36879 168.855L9.3159 165.869L4.335 161.257L4.40502 161.195Z" fill="white" stroke="#20201E" stroke-width="3.4947"/>
<path d="M96.5621 35.5185C96.5621 35.5185 20.3797 89.7709 20.3797 187.746" stroke="#20201E" stroke-width="2.684"/>
<path d="M112.263 73.1502C110.81 88.6458 118.372 99.7167 118.662 100.685C118.662 100.685 100.338 91.6917 98.5957 79.7874" stroke="#20201E" stroke-width="2.684"/>
<path d="M118.65 100.702C118.65 100.702 106.433 106.38 97.4207 102.781" stroke="#20201E" stroke-width="2.684"/>
<path d="M193.694 135.98C193.694 135.98 185.55 126.014 183.22 121.448" stroke="#20201E" stroke-width="2.684"/>
<path d="M143.508 43.4096C143.508 43.4096 156.92 43.4696 161.394 50.4652C167.498 60.0154 160.521 61.2597 160.521 61.2597C160.521 61.2597 153.543 63.3376 148.744 57.1099C143.635 50.4784 147.871 46.3154 147.871 46.3154L143.529 43.4075L143.508 43.4096Z" stroke="#20201E" stroke-width="2.684"/>
<path d="M208.514 114.388C203.711 113.143 200.66 113.56 198.483 114.804C198.483 114.804 200.66 108.577 196.737 103.178C192.808 97.7808 186.267 97.3639 180.596 86.9863" stroke="#20201E" stroke-width="2.684"/>
<path d="M81.1444 49.2194L72.8691 44.2391" stroke="#20201E" stroke-width="2.684"/>
<path d="M64.1314 67.0709L55.8405 63.3364" stroke="#20201E" stroke-width="2.684"/>
<path d="M48.8679 87.7944L39.2711 84.051" stroke="#20201E" stroke-width="2.684"/>
<path d="M36.6501 111.483L26.6192 108.159" stroke="#20201E" stroke-width="2.684"/>
<path d="M27.0565 139.304L16.5851 136.399" stroke="#20201E" stroke-width="2.684"/>
<path d="M21.3835 167.544L10.4808 166.286" stroke="#20201E" stroke-width="2.684"/>
<path d="M193.285 135.411C193.222 135.291 193.222 135.291 193.285 135.411V135.411Z" stroke="#20201E" stroke-width="2.684"/>
</svg>
