<svg width="133" height="190" viewBox="0 0 133 190" fill="none" xmlns="http://www.w3.org/2000/svg">
<path d="M91.848 160.869C80.0487 138.573 81.2409 98.8606 82.2273 83.4766C100.888 82.2586 114.309 78.8938 114.309 74.9296C114.309 71.0386 101.391 67.7222 83.2711 66.4515C94.8429 60.7766 102.761 49.2993 102.761 36.0551C102.761 17.1772 86.6879 1.87328 66.8507 1.87328C47.0134 1.87328 30.9399 17.1775 30.9399 36.0551C30.9399 49.299 38.8552 60.7763 50.4302 66.4515C32.3134 67.7222 19.3896 71.0386 19.3896 74.9296C19.3896 78.8938 32.8175 82.2586 51.4742 83.4766C52.4636 98.8611 53.6558 138.574 41.8566 160.869C18.7312 165.294 2.50366 175.679 2.50366 187.779H131.194C131.194 175.681 114.99 165.289 91.8636 160.857L91.848 160.869Z" fill="white" stroke="black" stroke-width="3.4947" stroke-linejoin="round"/>
</svg>
